<?xml version="1.0" standalone="no"?>
<!DOCTYPE svg PUBLIC "-//W3C//DTD SVG 20010904//EN"
 "http://www.w3.org/TR/2001/REC-SVG-20010904/DTD/svg10.dtd">
<svg version="1.0" xmlns="http://www.w3.org/2000/svg"
 width="30.000000pt" height="58.000000pt" viewBox="0 0 30.000000 58.000000"
 preserveAspectRatio="xMidYMid meet">

<g transform="translate(0.000000,58.000000) scale(0.100000,-0.100000)"
fill="#000000" stroke="none">
<path d="M258 468 l-3 -103 -107 -3 c-92 -2 -108 0 -108 13 0 8 -4 15 -10 15
-22 0 -9 -40 15 -46 28 -7 32 -29 10 -58 -31 -41 -15 -112 26 -121 28 -6 29
-9 29 -60 0 -65 27 -108 54 -86 12 10 16 31 16 75 0 61 0 62 33 71 30 9 32 13
35 61 2 36 -1 54 -13 64 -21 17 -19 50 3 50 35 0 42 21 42 127 0 135 -18 135
-22 1z m-58 -148 c0 -18 -7 -20 -55 -20 -39 0 -55 4 -55 13 0 9 10 12 30 9 18
-3 30 0 30 7 0 6 11 11 25 11 18 0 25 -5 25 -20z m28 -87 l-3 -48 -80 0 -80 0
-3 33 c-6 58 -1 62 88 62 l81 0 -3 -47z m-73 -104 c11 -17 -1 -21 -15 -4 -8 9
-8 15 -2 15 6 0 14 -5 17 -11z m-4 -46 c13 -16 12 -17 -3 -4 -10 7 -18 15 -18
17 0 8 8 3 21 -13z"/>
<path d="M80 210 c0 -5 7 -10 15 -10 8 0 15 5 15 10 0 6 -7 10 -15 10 -8 0
-15 -4 -15 -10z"/>
<path d="M130 210 c0 -5 18 -10 40 -10 22 0 40 5 40 10 0 6 -18 10 -40 10 -22
0 -40 -4 -40 -10z"/>
<path d="M230 431 c0 -28 5 -51 10 -51 6 0 10 20 10 44 0 25 -4 48 -10 51 -6
4 -10 -13 -10 -44z"/>
</g>
</svg>
