<?xml version="1.0" standalone="no"?>
<!DOCTYPE svg PUBLIC "-//W3C//DTD SVG 20010904//EN"
 "http://www.w3.org/TR/2001/REC-SVG-20010904/DTD/svg10.dtd">
<svg version="1.0" xmlns="http://www.w3.org/2000/svg"
 width="55.000000pt" height="80.000000pt" viewBox="0 0 55.000000 80.000000"
 preserveAspectRatio="xMidYMid meet">

<g transform="translate(0.000000,80.000000) scale(0.100000,-0.100000)"
fill="#000000" stroke="none">
<path d="M212 767 c-17 -7 -22 -17 -18 -31 7 -27 -11 -46 -44 -46 -22 0 -30
-6 -38 -30 -9 -26 -8 -31 9 -40 24 -14 24 -42 -1 -65 -18 -16 -18 -20 -5 -45
10 -20 20 -27 33 -23 22 5 46 -21 47 -50 0 -30 53 -49 66 -24 13 22 55 22 68
0 13 -25 66 -6 66 23 0 29 25 56 47 51 13 -4 23 3 33 23 13 25 13 29 -5 45
-25 23 -25 51 -1 65 17 9 18 14 9 40 -8 24 -16 30 -38 30 -33 0 -51 19 -44 46
8 29 -41 51 -66 29 -21 -19 -54 -19 -70 0 -14 17 -17 17 -48 2z m85 -37 c17 0
36 6 43 14 16 21 42 9 34 -16 -8 -25 22 -58 53 -58 29 0 43 -29 20 -42 -21
-11 -22 -61 -2 -78 23 -19 18 -40 -8 -40 -30 0 -70 -41 -61 -63 9 -23 -25 -35
-38 -14 -12 23 -74 23 -86 0 -13 -21 -47 -9 -38 14 9 22 -31 63 -61 63 -25 0
-30 19 -11 38 18 18 19 72 2 79 -8 3 -14 14 -14 24 0 14 7 19 25 19 31 0 69
36 60 57 -8 23 16 35 36 17 8 -7 29 -14 46 -14z"/>
<path d="M273 682 c-33 -5 -73 -58 -73 -96 0 -71 75 -115 138 -82 33 17 52 43
52 70 0 9 -4 16 -10 16 -5 0 -10 -9 -10 -19 0 -24 -45 -61 -75 -61 -38 0 -75
37 -75 75 0 62 55 96 114 70 14 -6 18 -5 14 5 -5 16 -43 27 -75 22z"/>
<path d="M333 608 l-42 -42 -26 24 c-14 13 -28 20 -32 17 -8 -9 36 -57 52 -57
6 0 33 23 60 50 27 28 45 50 39 50 -5 0 -28 -19 -51 -42z"/>
<path d="M508 468 l-3 -103 -107 -3 c-92 -2 -108 0 -108 13 0 8 -4 15 -10 15
-22 0 -9 -40 15 -46 28 -7 32 -29 10 -58 -31 -41 -15 -112 26 -121 28 -6 29
-9 29 -60 0 -65 27 -108 54 -86 12 10 16 31 16 75 0 61 0 62 33 71 30 9 32 13
35 61 2 36 -1 54 -13 64 -21 17 -19 50 3 50 35 0 42 21 42 127 0 135 -18 135
-22 1z m-58 -148 c0 -18 -7 -20 -55 -20 -39 0 -55 4 -55 13 0 9 10 12 30 9 18
-3 30 0 30 7 0 6 11 11 25 11 18 0 25 -5 25 -20z m28 -87 l-3 -48 -80 0 -80 0
-3 33 c-6 58 -1 62 88 62 l81 0 -3 -47z m-73 -104 c11 -17 -1 -21 -15 -4 -8 9
-8 15 -2 15 6 0 14 -5 17 -11z m-4 -46 c13 -16 12 -17 -3 -4 -10 7 -18 15 -18
17 0 8 8 3 21 -13z"/>
<path d="M330 210 c0 -5 7 -10 15 -10 8 0 15 5 15 10 0 6 -7 10 -15 10 -8 0
-15 -4 -15 -10z"/>
<path d="M380 210 c0 -5 18 -10 40 -10 22 0 40 5 40 10 0 6 -18 10 -40 10 -22
0 -40 -4 -40 -10z"/>
<path d="M480 431 c0 -28 5 -51 10 -51 6 0 10 20 10 44 0 25 -4 48 -10 51 -6
4 -10 -13 -10 -44z"/>
</g>
</svg>
