<?xml version="1.0" encoding="UTF-8"?>
<svg version="1.1" viewBox="0 0 2048 798" width="336" height="131" xmlns="http://www.w3.org/2000/svg">
<path transform="translate(0)" d="m0 0h2048v798h-2048z" fill="#FAFBFB"/>
<path transform="translate(579,178)" d="m0 0h46l50 1 18 18 7 8 9 9 7 8 9 9 7 8 15 15 7 8 9 9 7 8 11 11 7 8 14 14 7 8 11 11 7 8 10 10 7 8 14 14 7 8 9 9 7 8 13 13 7 8 9 9 7 8 4 6v2h-102l-8-7-16-17-14-15-8-8-7-8-8-8-7-8-7-7-7-8-12-12-7-8-8-8-7-8-10-10-7-8-9-9-7-8-9-9-7-8-10-10h-37v107l1 1 123 1 5 3 10 10 7 8 15 16 22 24 9 11-1 3-93 1h-94l-82-1-1-96v-73l1-94z" fill="#000201"/>
<path transform="translate(1541,178)" d="m0 0h311l14 1v77l-5 1h-250l1 111 101 1 8 7 9 10 11 12 9 10 12 13 10 11 7 8v2l-60 1h-179l-7-1-1-6v-243l1-14z" fill="#000402"/>
<path transform="translate(1180,179)" d="m0 0h86l8 7 15 15 7 8 14 14 7 8 11 11 7 8 11 11 7 8 13 13 7 8 8 8 7 8 7 7 7 8 15 15 7 8 13 13 7 8 9 9 7 8 13 13 7 8 8 8 7 8 10 10 7 8 2 5-53 1h-41l-10-1-14-15-8-8-7-8-8-8-7-8-16-17-9-9-7-8-10-10-7-8-11-11-7-8-12-12-7-8-10-10-7-8-4-4-1 103-8-6-9-10-14-15-10-10-7-8-12-12-7-8-9-8-2-4z" fill="#000201"/>
<path transform="translate(398,179)" d="m0 0h115l-1 4-8 9-8 7-32 30-8 7-7 7-8 7-17 16-8 8-8 7-8 8-8 7-11 11-8 7-11 11-8 7-11 11-8 7-17 16-14 13-8 7-8 8-8 7-13 13-8 7-13 13-10 8h-117l2-4 12-11 8-7 12-12 8-7 8-8 8-7 9-9 8-7 8-8 8-7 13-12 17-16 31-29 7-7 8-7 7-7 8-7 17-16 7-7 8-7 7-7 8-7 7-7 8-7 11-11 8-7z" fill="#000201"/>
<path transform="translate(1220,477)" d="m0 0h664l8 3 7 9 4 10-2 10-7 9-7 5-4 1-14 1h-562l-1-46-86-1z" fill="#FD1A11"/>
<path transform="translate(945,179)" d="m0 0h102l8 7 11 12 16 17 15 16 14 15 17 17 7 8 12 12 7 8 9 9 7 8 32 34 9 9 7 8 24 24 7 8 7 7 7 8 10 10 7 8 12 13 1 4-1 1h-101l-6-5-7-8-7-7-7-8-16-17-15-16-8-8-7-8-10-10-7-8-8-8-7-8-9-9-7-8-16-16-7-8-7-7-7-8-17-17-7-8-31-33-15-15-7-8-7-7-4-5z" fill="#000201"/>
<path transform="translate(132,477)" d="m0 0 347 1h235l-2 2-1 15-1 29-16 1-562-1-8-4-8-8-3-8 1-11 5-9 7-6z" fill="#00B63D"/>
<path transform="translate(508,199)" d="m0 0h2v177l-1 66-4 1-73-1-1-67-104-1-3-2 14-14 8-7 18-18 8-7 13-13 8-7 8-8 7-3h23v-23l7-9 13-12 9-9 8-7 15-14 8-7 12-11z" fill="#000201"/>
<path transform="translate(946,203)" d="m0 0 4 2 14 14 7 8 10 10 7 8 11 11 7 8 10 10 8 10-1 158h-78v-238z" fill="#000101"/>
<path transform="translate(1674,309)" d="m0 0h102l8 6 7 8 7 7 7 8 13 13 7 8 14 14 7 8 12 12 7 8 9 9 7 8 15 16 5 7v1l-64 1h-30l-11-1-15-16-18-20-14-15-16-16-7-8-7-7-7-8-12-12-7-8-14-15-5-6z" fill="#000301"/>
<path transform="translate(132,477)" d="m0 0 347 1h235l-3 4-1 7-2-1h-8l-7 1-7-2h-17l-19 2-33 2-76 1-25 1-13-1-91-2h-75l-13-1-63-1-31-1h-13l-13-1-31-1-24-3h-16l-9 3-3 5-3 7-1 9 5 9 8 6 5 2-3 1-8-4-8-8-3-8 1-11 5-9 7-6z" fill="#00A939"/>
<path transform="translate(785,564)" d="m0 0h11l5 5 4 13 1 6 2 1 3-9 5-14 3-2h9l5 2 1 3v45l-8 1-3-1-2-31-4 15-5 15-7 1-5-3-4-21-1-1-2 23-1 2h-12l-1-4 5-41z" fill="#000903"/>
<path transform="translate(892,564)" d="m0 0h22l7 3 5 5 4 9v15l-4 8-7 6-9 4-18 1-3-3-2-17v-17l1-10z" fill="#000803"/>
<path transform="translate(1011,564)" d="m0 0h10l6 5 10 21 2 3 1-28 1-1h7l2 6v41l-2 3h-9l-5-5-12-23v-2h-2v30h-11v-36l1-13z" fill="#000E05"/>
<path transform="translate(1914,440)" d="m0 0 2 4 2 9-1 4 1 3 6 1 4-6 4-1 1-4 2 2-5 10h-2l2 7-3 3-5 1-8-3h-7l-7 6h14l8 6 2 5 7 1 2-6 3-3v6h-2l-2 5-1 1h-5l-9-10-5-2-14 1-2-1h-8l-4-1h-665v-2l596-1 27-1 20 1h12l-32-2-13-3-2-2 23 2 16 2 21 1 6 1 10-5 2-4 7-2 1-2-9-1h-12l-11-1v-1l12-2 14-1 6-4z" fill="#EBE5E4"/>
<path transform="translate(1139,564)" d="m0 0h11l4 2 4 10 8 32v6l-8 1-4-2-3-11h-11l-3 3-2 8-3 2-9-1 6-27 7-21z" fill="#000A04"/>
<path transform="translate(855,564)" d="m0 0h10l5 5 6 18 6 22 1 5-10 1-3-2-5-11h-10l-3 10-3 2h-9l1-9 5-25 5-12z" fill="#000803"/>
<path transform="translate(938,564)" d="m0 0h30l1 1v7l-1 3h-16l-2 1v5l1 1 14 1 2 1v10l-17 2v5l3 2 15-1 1 9-2 3-12 1h-12l-6-1-1-2v-46z" fill="#000D05"/>
<path transform="translate(1091,564)" d="m0 0h31l6 1-1 6-2 3-8 1-1 1-2 37-2 1h-11l-1-1v-36l-1-1-7-1-2-2-1-8z" fill="#000C04"/>
<path transform="translate(1203,564)" d="m0 0h6l4 3 4 9 3 3 7-13 5-2h7l-1 8-11 21-1 4-1 16-1 1h-10l-1-1-3-20-4-12-6-13v-3z" fill="#000903"/>
<path transform="translate(1785,139)" d="m0 0h20l21 1 16 2h6l7 1 6 2 8 4 4 1h3l5 2v5l-2 2h-11l-6-1-15 2h-16v-1l23-4h2l1-4-7-1h-3l-1-2-6-1-24-2h-14l-11-2-27 1-7 1-1 1-9 1h-38l-8-1h-18v-2l7-2h22l4 1h29l3-1z" fill="#EBE5E4"/>
<path transform="translate(1177,564)" d="m0 0 8 1 1 36h17l1 2v8l-2 3h-29l-1-3v-45z" fill="#000B04"/>
<path transform="translate(1073,564)" d="m0 0h11l2 2-1 46-1 1h-13v-45z" fill="#000B04"/>
<path transform="translate(708,510)" d="m0 0h1l1 14-16 1-479-1v-1l489-1 2-6z" fill="#00A939"/>
<path transform="translate(992,564)" d="m0 0h7l1 1 1 49h-12v-48z" fill="#001206"/>
<path transform="translate(902,574)" d="m0 0h8l6 4 2 5v8l-4 8-8 5h-5l-2-2v-25z" fill="#FAFAFA"/>
<path transform="translate(1273,520)" d="m0 0h26l1 3-11 1-67-1 1-2z" fill="#EBE5E4"/>
<path transform="translate(1905,440)" d="m0 0 1 4-3 5-10 4-7 1 2-2 5-1-2-6 1-2h-55v-1h61l5 1z" fill="#EBE5E4"/>
<path transform="translate(1933,632)" d="m0 0h2l1 12h-30v-1l16-4 5-2z" fill="#EBE5E4"/>
<path transform="translate(708,510)" d="m0 0h1l1 14-16 1h-37v-2l47-1 2-6z" fill="#00A939"/>
<path transform="translate(1902,135)" d="m0 0h12l6 2v2h5l1 6-5 1-2-3v-4l-8 1h-9l-1 2h-3l1-5z" fill="#EBE5E4"/>
<path transform="translate(1634,129)" d="m0 0h16l13 3 6 1h25l2 2-2 1-31-1-18-3-10-1z" fill="#EBE5E4"/>
<path transform="translate(1917,573)" d="m0 0 1 2-4 7-8 6-8 3-12 1-3 1-15-1v-1l17-2h10l6-2 5-2 6-4z" fill="#EBE5E4"/>
<path transform="translate(1825,642)" d="m0 0h31l11 1v1l-9 1h-15l-30-1v-1z" fill="#EBE5E4"/>
<path transform="translate(1837,442)" d="m0 0h61v4l-4 1-2-4h-55z" fill="#EBE5E4"/>
<path transform="translate(1892,242)" d="m0 0h5l1 4-1 2 2 1-5 3v3 4h-6l-2 1 2-4 3-5 1-6z" fill="#EBE5E4"/>
<path transform="translate(1901,175)" d="m0 0h5l4 5v5h-2l-1 6v3l-7 1 5-5 1-9-2-3h-6v-2z" fill="#EBE5E4"/>
<path transform="translate(708,510)" d="m0 0h1l1 14h-8l5-10z" fill="#00A236"/>
<path transform="translate(1143,579)" d="m0 0 2 1 2 5v5h-6l1-8z" fill="#F8F9F8"/>
<path transform="translate(1911,601)" d="m0 0 2 1-5 5-18 4v-3l14-2z" fill="#EBE5E4"/>
<path transform="translate(1880,608)" d="m0 0h2v2l-11 3h-6v-2l4-2z" fill="#EBE5E4"/>
<path transform="translate(859,580)" d="m0 0 3 3 2 6-5 1-2-1z" fill="#F6F5F4"/>
<path transform="translate(1927,176)" d="m0 0h2l-1 5-2 5 3 1-3 3-3-3 1-1v-6z" fill="#EBE5E4"/>
<path transform="translate(1746,609)" d="m0 0 14 1v1l-19 1-2-2z" fill="#EBE5E4"/>
<path transform="translate(1845,614)" d="m0 0h7l-3 2-13 3h-6v-1z" fill="#EBE5E4"/>
<path transform="translate(1697,134)" d="m0 0h14l-1 3-4 1-9-3z" fill="#EBE5E4"/>
<path transform="translate(1892,442)" d="m0 0h6v4l-4 1-2-2z" fill="#F1EEED"/>
<path transform="translate(1841,129)" d="m0 0 9 3 2 4-10-4h-3v-2z" fill="#EBE5E4"/>
<path transform="translate(1721,134)" d="m0 0h15v1l-9 1-5 2-2-3z" fill="#EBE5E4"/>
</svg>
