<?xml version="1.0" standalone="no"?>
<!DOCTYPE svg PUBLIC "-//W3C//DTD SVG 20010904//EN"
 "http://www.w3.org/TR/2001/REC-SVG-20010904/DTD/svg10.dtd">
<svg version="1.0" xmlns="http://www.w3.org/2000/svg"
 width="80.000000pt" height="80.000000pt" viewBox="0 0 80.000000 80.000000"
 preserveAspectRatio="xMidYMid meet">

<g transform="translate(0.000000,80.000000) scale(0.100000,-0.100000)"
fill="#000000" stroke="none">
<path d="M560 660 c-17 -14 -41 -20 -77 -20 -28 0 -55 -4 -58 -10 -3 -5 -28
-10 -55 -10 -36 0 -59 7 -86 25 -42 29 -73 31 -114 10 -55 -28 -75 -98 -42
-146 9 -15 29 -44 43 -65 14 -22 49 -83 78 -137 l52 -97 -55 0 c-67 0 -86 -16
-86 -71 l0 -39 230 0 230 0 0 39 c0 57 -19 71 -94 71 l-62 0 -74 137 c-41 75
-76 141 -78 145 -5 12 106 10 113 -2 3 -5 29 -10 57 -10 34 0 59 -6 79 -21
l29 -20 60 32 c33 17 60 35 60 38 0 4 -6 15 -13 25 -13 18 -15 17 -53 -2 l-40
-20 -32 20 c-18 11 -32 24 -32 28 0 4 14 17 32 28 l32 20 40 -20 c38 -19 40
-20 53 -2 7 10 13 21 13 25 0 5 -112 69 -121 69 -2 0 -15 -9 -29 -20z m120
-61 c0 -5 -18 0 -40 11 l-41 21 -29 -21 c-28 -20 -30 -20 -30 -3 0 10 12 26
26 34 25 15 29 15 70 -8 24 -14 44 -29 44 -34z m-399 22 c39 -40 39 -82 0
-122 -40 -39 -82 -39 -122 0 -39 40 -39 82 0 122 20 20 39 29 61 29 22 0 41
-9 61 -29z m239 -61 l0 -60 -40 0 c-26 0 -40 4 -40 13 0 10 -15 12 -57 9 l-58
-4 0 42 0 42 58 -4 c42 -3 57 -1 57 9 0 9 14 13 40 13 l40 0 0 -60z m120 -50
c54 28 51 8 -4 -23 -41 -23 -45 -23 -70 -8 -14 8 -26 24 -26 34 0 17 2 17 30
-3 l29 -21 41 21z m-251 -202 c29 -54 48 -98 42 -98 -6 0 -11 -4 -11 -9 0 -4
37 -9 82 -10 45 -1 85 -4 90 -7 4 -3 8 -18 8 -35 l0 -29 -211 0 -210 0 3 33 3
32 73 3 c39 2 72 5 72 8 0 3 -29 58 -65 123 -36 65 -65 121 -65 125 0 3 10 6
23 6 12 1 33 7 47 14 28 16 19 27 119 -156z"/>
<path d="M210 610 c0 -5 5 -10 10 -10 6 0 10 5 10 10 0 6 -4 10 -10 10 -5 0
-10 -4 -10 -10z"/>
<path d="M160 560 c0 -5 5 -10 10 -10 6 0 10 5 10 10 0 6 -4 10 -10 10 -5 0
-10 -4 -10 -10z"/>
<path d="M260 560 c0 -5 5 -10 10 -10 6 0 10 5 10 10 0 6 -4 10 -10 10 -5 0
-10 -4 -10 -10z"/>
<path d="M210 510 c0 -5 5 -10 10 -10 6 0 10 5 10 10 0 6 -4 10 -10 10 -5 0
-10 -4 -10 -10z"/>
<path d="M420 560 c0 -5 5 -10 10 -10 6 0 10 5 10 10 0 6 -4 10 -10 10 -5 0
-10 -4 -10 -10z"/>
<path d="M340 200 c0 -5 5 -10 10 -10 6 0 10 5 10 10 0 6 -4 10 -10 10 -5 0
-10 -4 -10 -10z"/>
<path d="M380 200 c0 -5 5 -10 10 -10 6 0 10 5 10 10 0 6 -4 10 -10 10 -5 0
-10 -4 -10 -10z"/>
</g>
</svg>
