<?xml version="1.0" standalone="no"?>
<!DOCTYPE svg PUBLIC "-//W3C//DTD SVG 20010904//EN"
 "http://www.w3.org/TR/2001/REC-SVG-20010904/DTD/svg10.dtd">
<svg version="1.0" xmlns="http://www.w3.org/2000/svg"
 width="64.000000pt" height="64.000000pt" viewBox="0 0 64.000000 64.000000"
 preserveAspectRatio="xMidYMid meet">

<g transform="translate(0.000000,64.000000) scale(0.100000,-0.100000)"
fill="#000000" stroke="none">
<path d="M240 560 l0 -40 100 0 100 0 0 40 0 40 -100 0 -100 0 0 -40z"/>
<path d="M90 260 l0 -220 230 0 230 0 0 220 c0 213 -1 220 -20 220 -19 0 -20
-7 -20 -200 l0 -200 -170 0 -170 0 0 200 0 200 -40 0 -40 0 0 -220z"/>
<path d="M210 460 c0 -19 7 -20 130 -20 123 0 130 1 130 20 0 19 -7 20 -130
20 -123 0 -130 -1 -130 -20z"/>
<path d="M210 380 c0 -19 7 -20 130 -20 123 0 130 1 130 20 0 19 -7 20 -130
20 -123 0 -130 -1 -130 -20z"/>
<path d="M210 300 c0 -19 7 -20 130 -20 123 0 130 1 130 20 0 19 -7 20 -130
20 -123 0 -130 -1 -130 -20z"/>
<path d="M210 220 c0 -19 7 -20 130 -20 123 0 130 1 130 20 0 19 -7 20 -130
20 -123 0 -130 -1 -130 -20z"/>
<path d="M210 140 c0 -19 7 -20 130 -20 123 0 130 1 130 20 0 19 -7 20 -130
20 -123 0 -130 -1 -130 -20z"/>
</g>
</svg>
