<?xml version="1.0" encoding="UTF-8" standalone="no"?>
<svg
   xmlns:dc="http://purl.org/dc/elements/1.1/"
   xmlns:cc="http://creativecommons.org/ns#"
   xmlns:rdf="http://www.w3.org/1999/02/22-rdf-syntax-ns#"
   xmlns:svg="http://www.w3.org/2000/svg"
   xmlns="http://www.w3.org/2000/svg"
   xmlns:sodipodi="http://sodipodi.sourceforge.net/DTD/sodipodi-0.dtd"
   xmlns:inkscape="http://www.inkscape.org/namespaces/inkscape"
   version="1.0"
   width="64.000000pt"
   height="64.000000pt"
   viewBox="0 0 64.000000 64.000000"
   preserveAspectRatio="xMidYMid meet"
   id="svg2"
   inkscape:version="0.91 r13725"
   sodipodi:docname="smallbox2.svg">
  <metadata
     id="metadata24">
    <rdf:RDF>
      <cc:Work
         rdf:about="">
        <dc:format>image/svg+xml</dc:format>
        <dc:type
           rdf:resource="http://purl.org/dc/dcmitype/StillImage" />
        <dc:title></dc:title>
      </cc:Work>
    </rdf:RDF>
  </metadata>
  <defs
     id="defs22" />
  <sodipodi:namedview
     pagecolor="#ffffff"
     bordercolor="#666666"
     borderopacity="1"
     objecttolerance="10"
     gridtolerance="10"
     guidetolerance="10"
     inkscape:pageopacity="0"
     inkscape:pageshadow="2"
     inkscape:window-width="1474"
     inkscape:window-height="841"
     id="namedview20"
     showgrid="false"
     inkscape:zoom="2.95"
     inkscape:cx="4.0843655"
     inkscape:cy="45.994056"
     inkscape:window-x="54"
     inkscape:window-y="-8"
     inkscape:window-maximized="1"
     inkscape:current-layer="svg2" />
  <path
     style="fill:#000000;stroke:none"
     inkscape:connector-curvature="0"
     id="path6"
     d="m 16.245722,6.7640843 0,4.2130757 17.512137,0 17.51214,0 0,-4.2130757 0,-4.2130752 -17.51214,0 -17.512137,0 0,4.2130752 z" />
  <path
     style="fill:#000000;stroke:none"
     inkscape:connector-curvature="0"
     id="path10"
     d="m 21,15.76271 c 0,2.001211 0.7,2.106538 13,2.106538 12.3,0 13,-0.105327 13,-2.106538 0,-2.001211 -0.7,-2.106537 -13,-2.106537 -12.3,0 -13,0.105326 -13,2.106537 z" />
  <path
     style="fill:#000000;stroke:none"
     inkscape:connector-curvature="0"
     id="path12"
     d="m 21,24.188861 c 0,2.00121 0.7,2.106537 13,2.106537 12.3,0 13,-0.105327 13,-2.106537 0,-2.001211 -0.7,-2.106538 -13,-2.106538 -12.3,0 -13,0.105327 -13,2.106538 z" />
  <path
     style="fill:#000000;stroke:none"
     inkscape:connector-curvature="0"
     id="path14"
     d="m 21,32.615011 c 0,2.001211 0.7,2.106538 13,2.106538 12.3,0 13,-0.105327 13,-2.106538 0,-2.001211 -0.7,-2.106538 -13,-2.106538 -12.3,0 -13,0.105327 -13,2.106538 z" />
  <path
     style="fill:#000000;stroke:none"
     inkscape:connector-curvature="0"
     id="path16"
     d="m 21,41.041161 c 0,2.001211 0.7,2.106538 13,2.106538 12.3,0 13,-0.105327 13,-2.106538 0,-2.00121 -0.7,-2.106537 -13,-2.106537 -12.3,0 -13,0.105327 -13,2.106537 z" />
  <path
     style="fill:#000000;stroke:none"
     inkscape:connector-curvature="0"
     id="path18"
     d="m 21,49.467312 c 0,2.001211 0.7,2.106537 13,2.106537 12.3,0 13,-0.105326 13,-2.106537 0,-2.001211 -0.7,-2.106538 -13,-2.106538 -12.3,0 -13,0.105327 -13,2.106538 z" />
  <g
     id="g3426">
    <path
       d="m 11.036358,56.189831 0,2.043583 22.881356,0 22.881356,0 0,-2.043583 0,-2.043584 -22.881356,0 -22.881356,0 0,2.043584 z"
       id="path6-0"
       inkscape:connector-curvature="0"
       style="fill:#000000;stroke:none" />
    <path
       d="m 13.105467,58.177573 2.043583,0 0,-22.881356 0,-22.881356 -2.043583,0 -2.043584,0 0,22.881356 0,22.881356 2.043584,0 z"
       id="path6-0-6"
       inkscape:connector-curvature="0"
       style="fill:#000000;stroke:none" />
    <path
       d="m 54.716903,58.177573 2.043583,0 0,-22.881356 0,-22.881356 -2.043583,0 -2.043584,0 0,22.881356 0,22.881356 2.043584,0 z"
       id="path6-0-6-0"
       inkscape:connector-curvature="0"
       style="fill:#000000;stroke:none" />
  </g>
</svg>
